<svg width="1380" height="512" viewBox="0 0 1380 512" fill="none" xmlns="http://www.w3.org/2000/svg">
<path d="M253.5 43.5C253 43.7 251.3 44.1 249.8 44.4C245.9 45.3 241 49.8 238.9 54.5C235.2 62.6 237.6 72.3 244.6 77.6C248 80.2 249.1 80.5 256 80.5C262.9 80.5 264 80.2 267.4 77.6C271.8 74.3 274.9 68.1 275 62.7C275 55.9 270.7 48.5 265 45.5C262.3 44.2 255.2 42.9 253.5 43.5Z" fill="#FF8000"/>
<path d="M42.5 71.9002C34.5 75.5002 31.3 81.9002 32.2 92.0002C33.8 108.1 55.6 113.6 65.6 100.4C68.2 97.0002 68.5 95.9002 68.5 89.0002C68.5 82.1002 68.2 81.0002 65.6 77.6002C60.3 70.6002 50.6 68.2002 42.5 71.9002Z" fill="#FF8000"/>
<path d="M453.5 71.8998C448 74.3998 445 77.9998 443.4 83.8998C441 93.0998 445.2 102.4 453.4 106.1C467.6 112.5 482.9 100.6 480.1 85.2998C479.2 80.5998 477.9 78.1998 474.8 75.2998C469.2 69.9998 460.5 68.6998 453.5 71.8998Z" fill="#FF8000"/>
<path d="M248.6 102.5C244.2 112.7 232.6 132.4 225.1 142.4C213.5 157.9 201.2 168.9 188.4 175.4C176.8 181.2 171 182.5 157.5 182.4C146.6 182.4 144.6 182.1 136 179.1C116.8 172.5 102 162.3 81.8 141.9C74.2 134.2 68 128.4 68 129C68 129.7 73.9 154.2 81 183.5C88.2 212.8 94 237.1 94 237.4C94 237.7 166.9 238 256 238C345.1 238 418 237.8 418 237.5C418 237.3 423.9 213.1 431 183.8C438.2 154.6 444 130 444 129.3C444 128.5 437.8 134.2 430.3 141.9C410 162.4 395 172.7 376.1 179C353.7 186.5 330.4 182.5 311.2 167.7C295.5 155.6 278.6 133.3 266.8 108.9L260.5 96.1H256L251.4 96L248.6 102.5Z" fill="#FF8000"/>
<path d="M52.0999 428.7C50.8999 429.7 49.6999 432.1 49.3999 434.1C48.8999 437 49.2999 438.2 51.2999 440.6L53.7999 443.5H256H458.2L460.7 440.6C462.7 438.2 463.1 437 462.6 434.1C462.3 432.1 461.1 429.7 459.9 428.8C457.9 427.1 446.7 427 256 427C65.2999 427 54.0999 427.1 52.0999 428.7Z" fill="#FF8000"/>
<path d="M185.78 284L165.9 382H139.58L119.7 284H139.86L147.56 329.36L152.32 358.76H153.16L157.92 329.36L165.62 284H185.78ZM249.259 382V284H268.439V382H249.259ZM356.835 300.8V335.8H369.295C374.428 331.6 376.995 325.44 376.995 317.32C376.995 313.867 376.295 310.6 374.895 307.52C373.588 304.44 372.002 302.2 370.135 300.8H356.835ZM337.935 382V284H375.875C382.222 286.8 387.215 291.093 390.855 296.88C394.588 302.667 396.455 309.433 396.455 317.18C396.455 324.833 394.542 331.927 390.715 338.46C386.888 344.993 381.242 349.613 373.775 352.32H356.835V382H337.935Z" fill="white"/>
<path d="M541.36 377.5V153.5H656.24V191.9H585.2V245.34H648.56V282.46H585.2V340.38H657.52V377.5H541.36ZM734.778 274.78L754.618 213.98H799.098L768.698 293.66L800.378 377.5H756.538L734.458 314.14H733.178L712.058 377.5H668.218L699.898 293.66L669.498 213.98H713.338L733.498 274.78H734.778ZM851.94 294.3C851.94 303.26 853.327 312.433 856.1 321.82C858.873 330.993 862.713 338.353 867.62 343.9H915.62V377.5H845.54C820.367 357.447 807.78 329.713 807.78 294.3C807.78 258.887 821.22 232.113 848.1 213.98H915.62V247.58H867.62C857.167 258.46 851.94 274.033 851.94 294.3ZM1027.98 377.5H958.218C936.884 357.66 926.218 330.567 926.218 296.22C926.218 278.94 928.564 263.9 933.258 251.1C938.164 238.3 945.844 225.927 956.298 213.98H1031.18C1042.27 226.78 1049.84 239.26 1053.9 251.42C1057.95 263.367 1059.98 278.3 1059.98 296.22C1059.98 330.567 1049.31 357.66 1027.98 377.5ZM980.938 343.9H1005.26C1012.94 328.967 1016.78 312.007 1016.78 293.02C1016.78 274.033 1012.83 258.887 1004.94 247.58H980.938C973.258 258.46 969.418 273.927 969.418 293.98C969.418 313.82 973.258 330.46 980.938 343.9ZM1083.21 377.5V213.98H1113.61L1121.61 231.26C1130.14 219.74 1140.91 213.98 1153.93 213.98H1166.41V256.86H1125.77V377.5H1083.21ZM1194.36 306.14V247.58H1172.28V213.98H1194.36V169.5H1236.92V213.98H1263.16V247.58H1236.92V316.38C1236.92 329.393 1239.16 338.567 1243.64 343.9H1263.16V377.5H1217.72C1206.41 367.047 1199.59 355.74 1197.24 343.58C1195.32 333.34 1194.36 320.86 1194.36 306.14ZM1297.32 213.98H1368.04V247.58H1318.12L1348.52 292.7C1362.18 312.113 1369.75 325.447 1371.24 332.7C1372.1 336.113 1372.52 339.633 1372.52 343.26C1372.52 358.407 1366.87 369.82 1355.56 377.5H1273.96V343.9H1332.52L1298.28 293.66C1296.79 291.313 1294.44 288.007 1291.24 283.74C1288.26 279.473 1285.91 276.06 1284.2 273.5C1282.5 270.727 1281.32 268.7 1280.68 267.42C1280.04 266.14 1279.19 264.54 1278.12 262.62C1277.06 260.487 1276.31 258.673 1275.88 257.18C1275.03 253.127 1274.6 249.82 1274.6 247.26C1274.6 231.687 1282.18 220.593 1297.32 213.98Z" fill="white"/>
</svg>
